<svg width="329" height="329" viewBox="0 0 329 329" fill="none" xmlns="http://www.w3.org/2000/svg">
<circle cx="164.5" cy="164.5" r="164.5" fill="black"/>
<path d="M88.9588 231H56.6634L105.872 88.4545H144.71L193.849 231H161.554L125.848 121.028H124.734L88.9588 231ZM86.9403 174.97H163.224V198.496H86.9403V174.97ZM238.097 233.088C227.285 233.088 217.936 230.791 210.047 226.197C202.205 221.557 196.15 215.107 191.881 206.848C187.612 198.542 185.478 188.914 185.478 177.963C185.478 166.92 187.612 157.268 191.881 149.009C196.15 140.703 202.205 134.253 210.047 129.659C217.936 125.019 227.285 122.699 238.097 122.699C248.909 122.699 258.235 125.019 266.077 129.659C273.965 134.253 280.044 140.703 284.313 149.009C288.582 157.268 290.716 166.92 290.716 177.963C290.716 188.914 288.582 198.542 284.313 206.848C280.044 215.107 273.965 221.557 266.077 226.197C258.235 230.791 248.909 233.088 238.097 233.088ZM238.236 210.119C243.155 210.119 247.261 208.727 250.556 205.943C253.85 203.113 256.333 199.261 258.003 194.389C259.72 189.517 260.579 183.972 260.579 177.754C260.579 171.536 259.72 165.991 258.003 161.119C256.333 156.247 253.85 152.396 250.556 149.565C247.261 146.735 243.155 145.32 238.236 145.32C233.271 145.32 229.095 146.735 225.708 149.565C222.367 152.396 219.838 156.247 218.121 161.119C216.451 165.991 215.615 171.536 215.615 177.754C215.615 183.972 216.451 189.517 218.121 194.389C219.838 199.261 222.367 203.113 225.708 205.943C229.095 208.727 233.271 210.119 238.236 210.119Z" fill="white"/>
</svg>
